<svg xmlns="http://www.w3.org/2000/svg" xmlns:xlink="http://www.w3.org/1999/xlink" width="500" zoomAndPan="magnify" viewBox="0 0 375 374.999991" height="500" preserveAspectRatio="xMidYMid meet" version="1.0"><defs><g/><clipPath id="8869064f80"><path d="M 91.222656 33 L 279.472656 33 L 279.472656 136.492188 L 91.222656 136.492188 Z M 91.222656 33 " clip-rule="nonzero"/></clipPath><clipPath id="1308a3e9e7"><path d="M 91.222656 187.359375 L 279.472656 187.359375 L 279.472656 267.609375 L 91.222656 267.609375 Z M 91.222656 187.359375 " clip-rule="nonzero"/></clipPath><clipPath id="92199bff53"><path d="M 128 84.921875 L 243 84.921875 L 243 150 L 128 150 Z M 128 84.921875 " clip-rule="nonzero"/></clipPath><clipPath id="c8bce93a66"><path d="M 91.222656 122 L 279.472656 122 L 279.472656 212.421875 L 91.222656 212.421875 Z M 91.222656 122 " clip-rule="nonzero"/></clipPath></defs><g clip-path="url(#8869064f80)"><path fill="#ffbd59" d="M 232.292969 49.570312 C 209.304688 49.125 191.390625 37.179688 185.269531 33 C 179.148438 37.179688 161.234375 49.125 138.242188 49.570312 C 113.011719 50.167969 97.1875 44.046875 91.21875 40.015625 L 91.21875 106.898438 L 101.367188 106.898438 L 101.367188 55.246094 C 112.265625 58.378906 123.613281 59.871094 134.957031 59.722656 L 138.542969 59.722656 C 154.214844 59.273438 170.191406 54.199219 185.269531 44.945312 C 200.347656 54.199219 216.320312 59.273438 231.996094 59.574219 L 235.578125 59.574219 C 246.925781 59.722656 258.269531 58.230469 269.167969 55.09375 L 269.167969 106.75 L 279.320312 106.75 L 279.320312 40.015625 C 273.347656 44.046875 257.523438 50.167969 232.292969 49.570312 Z M 244.238281 192.886719 C 228.414062 214.683594 207.511719 230.359375 185.269531 237.523438 C 162.875 230.507812 142.125 214.683594 126.300781 193.035156 C 121.96875 187.066406 118.089844 180.796875 114.804688 174.226562 L 103.457031 174.226562 C 119.28125 208.113281 149.289062 237.824219 185.269531 247.976562 C 212.140625 240.363281 235.578125 221.851562 252.449219 198.859375 C 258.121094 191.097656 263.046875 182.738281 267.078125 174.078125 L 255.882812 174.078125 C 252.449219 180.644531 248.566406 186.917969 244.238281 192.886719 Z M 244.238281 192.886719 " fill-opacity="1" fill-rule="nonzero"/></g><g clip-path="url(#1308a3e9e7)"><path fill="#ffbd59" d="M 232.292969 69.488281 C 209.304688 69.039062 191.390625 57.097656 185.269531 52.914062 C 179.148438 57.097656 161.234375 69.039062 138.242188 69.488281 C 113.011719 70.085938 97.1875 63.964844 91.21875 59.933594 L 91.21875 126.8125 L 101.367188 126.8125 L 101.367188 75.160156 C 112.265625 78.296875 123.613281 79.789062 134.957031 79.636719 L 138.542969 79.636719 C 154.214844 79.191406 170.191406 74.113281 185.269531 64.859375 C 200.347656 74.113281 216.320312 79.191406 231.996094 79.488281 L 235.578125 79.488281 C 246.925781 79.636719 258.269531 78.144531 269.167969 75.011719 L 269.167969 126.664062 L 279.320312 126.664062 L 279.320312 59.933594 C 273.347656 63.964844 257.523438 70.085938 232.292969 69.488281 Z M 244.238281 212.804688 C 228.414062 234.597656 207.511719 250.273438 185.269531 257.441406 C 162.875 250.425781 142.125 234.597656 126.300781 212.953125 C 121.96875 206.980469 118.089844 200.710938 114.804688 194.140625 L 103.457031 194.140625 C 119.28125 228.03125 149.289062 257.738281 185.269531 267.890625 C 212.140625 260.277344 235.578125 241.765625 252.449219 218.773438 C 258.121094 211.011719 263.046875 202.652344 267.078125 193.992188 L 255.882812 193.992188 C 252.449219 200.5625 248.566406 206.832031 244.238281 212.804688 Z M 244.238281 212.804688 " fill-opacity="1" fill-rule="nonzero"/></g><g fill="#ab6c18" fill-opacity="1"><g transform="translate(57.415736, 321.384824)"><g><path d="M 30.140625 -21.78125 L 10.390625 -21.78125 L 10.390625 -3.5 L 30.140625 -3.5 L 30.140625 -10.90625 L 19.9375 -10.90625 L 19.9375 -14.125 L 34.34375 -14.125 L 34.34375 -5.96875 C 34.34375 -3.65625 33.925781 -2.082031 33.09375 -1.25 C 32.269531 -0.414062 30.710938 0 28.421875 0 L 12.109375 0 C 9.804688 0 8.242188 -0.421875 7.421875 -1.265625 C 6.609375 -2.109375 6.203125 -3.675781 6.203125 -5.96875 L 6.203125 -19.25 C 6.203125 -21.539062 6.609375 -23.101562 7.421875 -23.9375 C 8.242188 -24.78125 9.804688 -25.203125 12.109375 -25.203125 L 28.421875 -25.203125 C 30.679688 -25.203125 32.234375 -24.789062 33.078125 -23.96875 C 33.921875 -23.15625 34.34375 -21.675781 34.34375 -19.53125 L 34.34375 -18.90625 L 30.140625 -18.078125 Z M 30.140625 -21.78125 "/></g></g></g><g fill="#ab6c18" fill-opacity="1"><g transform="translate(97.315926, 321.384824)"><g><path d="M 10.390625 -3.5 L 31.265625 -3.5 L 31.265625 -21.78125 L 10.390625 -21.78125 Z M 6.203125 -19.25 C 6.203125 -21.539062 6.609375 -23.101562 7.421875 -23.9375 C 8.242188 -24.78125 9.804688 -25.203125 12.109375 -25.203125 L 29.546875 -25.203125 C 31.816406 -25.203125 33.363281 -24.785156 34.1875 -23.953125 C 35.007812 -23.117188 35.421875 -21.550781 35.421875 -19.25 L 35.421875 -5.96875 C 35.421875 -3.644531 35.007812 -2.066406 34.1875 -1.234375 C 33.363281 -0.410156 31.816406 0 29.546875 0 L 12.109375 0 C 9.804688 0 8.242188 -0.421875 7.421875 -1.265625 C 6.609375 -2.109375 6.203125 -3.675781 6.203125 -5.96875 Z M 6.203125 -19.25 "/></g></g></g><g fill="#ab6c18" fill-opacity="1"><g transform="translate(138.980977, 321.384824)"><g><path d="M 6.53125 0 L 6.53125 -25.203125 L 10.75 -25.203125 L 10.75 -3.5 L 29.828125 -3.5 L 29.828125 0 Z M 6.53125 0 "/></g></g></g><g fill="#ab6c18" fill-opacity="1"><g transform="translate(170.86774, 321.384824)"><g><path d="M 19.8125 -21.78125 L 10.75 -21.78125 L 10.75 -3.5 L 19.8125 -3.5 C 23.90625 -3.5 26.789062 -4.210938 28.46875 -5.640625 C 30.15625 -7.078125 31 -9.453125 31 -12.765625 C 31 -15.953125 30.140625 -18.25 28.421875 -19.65625 C 26.710938 -21.070312 23.84375 -21.78125 19.8125 -21.78125 Z M 20.421875 -25.203125 C 22.734375 -25.203125 24.65625 -25.046875 26.1875 -24.734375 C 27.726562 -24.429688 29.03125 -23.9375 30.09375 -23.25 C 31.71875 -22.1875 32.992188 -20.722656 33.921875 -18.859375 C 34.859375 -17.003906 35.328125 -14.972656 35.328125 -12.765625 C 35.328125 -10.410156 34.867188 -8.289062 33.953125 -6.40625 C 33.035156 -4.519531 31.75 -3.035156 30.09375 -1.953125 C 29.0625 -1.285156 27.773438 -0.789062 26.234375 -0.46875 C 24.691406 -0.15625 22.753906 0 20.421875 0 L 6.53125 0 L 6.53125 -25.203125 Z M 20.421875 -25.203125 "/></g></g></g><g fill="#ab6c18" fill-opacity="1"><g transform="translate(210.338639, 321.384824)"><g><path d="M 6.53125 0 L 6.53125 -25.203125 L 30.8125 -25.203125 L 30.8125 -21.828125 L 10.75 -21.828125 L 10.75 -14.8125 L 23.015625 -14.8125 L 23.015625 -11.46875 L 10.75 -11.46875 L 10.75 -3.453125 L 31 -3.453125 L 31 0 Z M 6.53125 0 "/></g></g></g><g fill="#ab6c18" fill-opacity="1"><g transform="translate(244.824996, 321.384824)"><g><path d="M 25.203125 -21.9375 L 10.75 -21.9375 L 10.75 -13.09375 L 25.203125 -13.09375 C 26.253906 -13.09375 26.96875 -13.28125 27.34375 -13.65625 C 27.726562 -14.039062 27.921875 -14.710938 27.921875 -15.671875 L 27.921875 -19.34375 C 27.921875 -20.289062 27.726562 -20.957031 27.34375 -21.34375 C 26.957031 -21.738281 26.242188 -21.9375 25.203125 -21.9375 Z M 6.53125 0 L 6.53125 -25.203125 L 26.859375 -25.203125 C 28.742188 -25.203125 30.101562 -24.816406 30.9375 -24.046875 C 31.78125 -23.273438 32.203125 -22.03125 32.203125 -20.3125 L 32.203125 -14.6875 C 32.203125 -12.988281 31.78125 -11.753906 30.9375 -10.984375 C 30.101562 -10.210938 28.742188 -9.828125 26.859375 -9.828125 L 23.15625 -9.828125 L 34.671875 0 L 28.421875 0 L 18.171875 -9.828125 L 10.75 -9.828125 L 10.75 0 Z M 6.53125 0 "/></g></g></g><g fill="#ab6c18" fill-opacity="1"><g transform="translate(282.054043, 321.384824)"><g><path d="M 10.75 -9.421875 L 24.328125 -9.421875 L 17.53125 -22.328125 Z M 1.625 0 L 15.390625 -25.203125 L 19.890625 -25.203125 L 33.890625 0 L 29.265625 0 L 26.046875 -6.203125 L 8.984375 -6.203125 L 5.765625 0 Z M 1.625 0 "/></g></g></g><g clip-path="url(#92199bff53)"><path fill="#ab6c18" d="M 131.859375 116.316406 C 152.160156 121.214844 169.8125 132.378906 181.5625 147.757812 C 182.453125 148.921875 183.835938 149.605469 185.300781 149.605469 C 185.304688 149.605469 185.304688 149.605469 185.304688 149.605469 C 186.769531 149.605469 188.152344 148.921875 189.042969 147.757812 C 200.777344 132.375 218.421875 121.214844 238.726562 116.332031 C 240.34375 115.941406 241.636719 114.726562 242.121094 113.136719 C 242.609375 111.542969 242.222656 109.8125 241.101562 108.585938 C 227.40625 93.574219 207.066406 84.96875 185.300781 84.96875 C 163.53125 84.96875 143.1875 93.570312 129.488281 108.566406 C 128.363281 109.796875 127.972656 111.527344 128.460938 113.117188 C 128.949219 114.710938 130.238281 115.925781 131.859375 116.316406 Z M 185.300781 94.378906 C 201.582031 94.378906 216.898438 99.800781 228.445312 109.464844 C 211.429688 115.023438 196.464844 124.730469 185.300781 137.476562 C 174.125 124.734375 159.15625 115.023438 142.140625 109.457031 C 153.695312 99.800781 169.019531 94.378906 185.300781 94.378906 Z M 185.300781 94.378906 " fill-opacity="1" fill-rule="nonzero"/></g><g clip-path="url(#c8bce93a66)"><path fill="#ab6c18" d="M 274.464844 122.417969 C 265.441406 122.632812 256.535156 123.953125 247.992188 126.339844 C 247.992188 126.339844 247.988281 126.339844 247.988281 126.339844 C 238.039062 129.109375 228.699219 133.265625 220.246094 138.691406 C 215.90625 141.460938 211.773438 144.605469 207.976562 148.027344 C 205.328125 150.398438 202.808594 152.9375 200.492188 155.574219 C 199.878906 156.269531 199.277344 156.976562 198.6875 157.691406 C 198.5 157.914062 198.324219 158.144531 198.140625 158.371094 C 197.742188 158.863281 197.34375 159.359375 196.957031 159.859375 C 196.742188 160.136719 196.535156 160.421875 196.320312 160.699219 C 195.980469 161.15625 195.636719 161.609375 195.304688 162.066406 C 195.085938 162.375 194.871094 162.683594 194.652344 162.992188 C 194.484375 163.230469 194.308594 163.46875 194.144531 163.710938 C 193.84375 163.964844 193.574219 164.257812 193.34375 164.589844 C 193.082031 164.96875 192.898438 165.378906 192.753906 165.796875 C 192.390625 166.363281 192.039062 166.9375 191.691406 167.519531 C 191.671875 167.546875 191.648438 167.582031 191.628906 167.613281 C 191.625 167.621094 191.617188 167.632812 191.613281 167.640625 C 191.609375 167.644531 191.605469 167.648438 191.605469 167.652344 C 191.605469 167.652344 191.605469 167.65625 191.601562 167.65625 C 188.835938 172.191406 186.546875 176.949219 184.753906 181.851562 C 183.011719 177.109375 180.796875 172.496094 178.101562 168.027344 C 177.722656 167.382812 177.332031 166.75 176.921875 166.117188 C 176.726562 165.804688 176.527344 165.496094 176.320312 165.183594 L 176.136719 164.902344 C 176.0625 164.789062 175.984375 164.679688 175.902344 164.574219 C 174.949219 163.15625 173.964844 161.777344 172.949219 160.441406 C 171.9375 159.105469 170.894531 157.816406 169.835938 156.582031 C 167.164062 153.433594 164.148438 150.367188 160.878906 147.480469 C 157.382812 144.382812 153.480469 141.433594 149.285156 138.71875 C 149.285156 138.71875 149.28125 138.71875 149.28125 138.71875 C 149.277344 138.714844 149.269531 138.710938 149.265625 138.707031 C 141.089844 133.46875 132.101562 129.410156 122.546875 126.644531 C 122.546875 126.644531 122.546875 126.640625 122.542969 126.640625 C 114 124.164062 105.125 122.757812 96.164062 122.460938 C 93.566406 122.378906 91.390625 124.410156 91.304688 127.003906 C 91.21875 129.601562 93.253906 131.777344 95.847656 131.863281 C 102.433594 132.082031 108.960938 132.96875 115.320312 134.480469 C 114.152344 139.058594 113.558594 143.761719 113.558594 148.523438 C 113.558594 161.832031 118.148438 174.582031 126.832031 185.398438 C 137.378906 198.507812 152.933594 207.511719 170.617188 210.761719 C 175.152344 211.601562 179.878906 212.046875 184.664062 212.09375 C 184.679688 212.09375 184.691406 212.09375 184.707031 212.09375 C 184.710938 212.09375 184.71875 212.09375 184.722656 212.09375 C 184.726562 212.09375 184.734375 212.09375 184.738281 212.09375 L 185.292969 212.09375 C 190.222656 212.09375 195.15625 211.644531 199.945312 210.761719 C 217.652344 207.511719 233.207031 198.5 243.746094 185.394531 C 252.425781 174.578125 257.011719 161.832031 257.011719 148.523438 C 257.011719 143.695312 256.398438 138.90625 255.1875 134.234375 C 261.535156 132.796875 268.066406 131.984375 274.679688 131.824219 C 277.277344 131.761719 279.332031 129.609375 279.269531 127.011719 C 279.21875 124.414062 277.074219 122.363281 274.464844 122.417969 Z M 201.878906 169.078125 C 202.6875 167.902344 203.53125 166.734375 204.417969 165.589844 C 204.488281 165.496094 204.566406 165.40625 204.640625 165.3125 C 205.039062 164.800781 205.472656 164.308594 205.886719 163.804688 C 207.460938 165.546875 209.875 166.679688 212.605469 166.722656 C 217.429688 166.789062 221.394531 163.417969 221.472656 159.183594 C 221.527344 156.347656 219.816406 153.851562 217.234375 152.488281 C 217.300781 152.433594 217.371094 152.378906 217.4375 152.324219 C 218.007812 151.859375 218.585938 151.398438 219.171875 150.949219 C 219.460938 150.722656 219.757812 150.5 220.050781 150.277344 C 220.648438 149.828125 221.253906 149.390625 221.863281 148.957031 C 222.128906 148.769531 222.394531 148.578125 222.660156 148.390625 C 222.769531 148.316406 222.882812 148.246094 222.992188 148.167969 C 226.972656 150.828125 229.316406 154.910156 229.238281 159.277344 C 229.082031 166.957031 221.511719 173.097656 212.46875 172.96875 C 208.398438 172.910156 204.613281 171.628906 201.679688 169.367188 C 201.746094 169.273438 201.8125 169.175781 201.878906 169.078125 Z M 146.632812 148.277344 C 146.695312 148.320312 146.761719 148.363281 146.824219 148.40625 C 147.03125 148.550781 147.234375 148.699219 147.441406 148.84375 C 148.066406 149.289062 148.683594 149.734375 149.292969 150.1875 C 149.554688 150.386719 149.816406 150.585938 150.078125 150.785156 C 150.640625 151.214844 151.195312 151.652344 151.742188 152.09375 C 151.933594 152.246094 152.128906 152.402344 152.320312 152.558594 C 150.21875 153.957031 148.859375 156.160156 148.859375 158.652344 C 148.859375 162.890625 152.777344 166.332031 157.601562 166.332031 C 160.019531 166.332031 162.1875 165.441406 163.765625 164.042969 C 164.332031 164.738281 164.90625 165.417969 165.457031 166.140625 C 165.753906 166.535156 166.035156 166.953125 166.332031 167.355469 C 166.851562 168.070312 167.371094 168.789062 167.875 169.53125 C 164.992188 171.484375 161.402344 172.5625 157.601562 172.5625 C 148.507812 172.5625 141.109375 166.324219 141.109375 158.652344 C 141.109375 154.628906 143.132812 150.894531 146.632812 148.277344 Z M 172.332031 201.507812 C 156.855469 198.667969 143.300781 190.851562 134.171875 179.503906 C 126.847656 170.382812 122.976562 159.667969 122.976562 148.523438 C 122.976562 144.648438 123.441406 140.816406 124.367188 137.085938 C 129.195312 138.742188 133.824219 140.796875 138.242188 143.171875 C 134.101562 147.382812 131.699219 152.882812 131.699219 158.652344 C 131.699219 171.511719 143.316406 181.972656 157.597656 181.972656 C 163.074219 181.972656 168.296875 180.410156 172.632812 177.621094 C 176.628906 185.507812 179.035156 193.828125 179.769531 202.472656 C 177.242188 202.28125 174.753906 201.957031 172.332031 201.507812 Z M 236.417969 179.503906 C 227.292969 190.851562 213.742188 198.664062 198.25 201.507812 C 195.4375 202.027344 192.570312 202.375 189.683594 202.550781 C 190.414062 193.859375 192.84375 185.484375 196.898438 177.515625 C 201.269531 180.566406 206.636719 182.292969 212.332031 182.375 C 212.46875 182.378906 212.605469 182.378906 212.746094 182.378906 C 226.8125 182.378906 238.390625 172.171875 238.648438 159.457031 C 238.648438 159.457031 238.648438 159.449219 238.648438 159.445312 C 238.757812 153.179688 236.136719 147.332031 231.535156 142.984375 C 236.171875 140.511719 241.046875 138.414062 246.128906 136.738281 C 247.113281 140.597656 247.609375 144.546875 247.609375 148.523438 C 247.609375 159.667969 243.738281 170.382812 236.417969 179.503906 Z M 236.417969 179.503906 " fill-opacity="1" fill-rule="nonzero"/></g></svg>